<?xml version="1.0" encoding="UTF-8"?> <svg xmlns="http://www.w3.org/2000/svg" viewBox="0 0 201.23 76.63"><defs><style>.cls-1{fill:#fbf6e5;}</style></defs><title>Asset 8</title><g id="Layer_2" data-name="Layer 2"><g id="Layer_1-2" data-name="Layer 1"><path class="cls-1" d="M182.91,65.27a11,11,0,0,0,.32,2.61c.52,2,3.74,7.25,8,8.46,0,0,1.36.5,1.91.18s.68-1.37.68-1.37a5.65,5.65,0,0,0,0-1.85c-.79-4.54-5.69-8.94-9.26-9.29a7,7,0,0,0,2.07.6c6.88,4,11.6,4.85,14.24,2.8a1,1,0,0,0,.37-.56,1.16,1.16,0,0,0-.35-.6A11.38,11.38,0,0,0,195.22,63c-3.3-.81-6.31-.47-9.37-.25-2.14-1-4.33-3-2.18-4.15,1.76-1,2.42,1.31,1.73,1.6,0,0,.46,1.25,1,.55a1.78,1.78,0,0,0,.27-2.35c-.76-1.07-2.62-1-3.55-.42a2.23,2.23,0,0,0-1.26,1.86,3.76,3.76,0,0,0,1.61,2.76l.68.4a1.77,1.77,0,0,0-.64.35,2.54,2.54,0,0,0-.54,1.2Zm1.85,1.67a9.42,9.42,0,0,1-.22-2.92c1.95-.05,7.11,3.86,8.14,9.19.11.57.15,1.78-.2,1.68C188.29,73.91,185.52,69.35,184.76,66.94ZM187,63.45c3.64-.16,4.89-.67,8.07.14a12.68,12.68,0,0,1,4.84,2.94C197.23,68.37,191.09,66.09,187,63.45Z"></path><path class="cls-1" d="M49.08,18.47C50.64,11.48,53,4.95,57.6,2.8,60.44,1.46,62.06,2,62,6.67c-2.91,21.42-9.57,18-11.27,19s-2.3,3.76-.61,4.85c3.51.85,6.19-1.85,7.27-3.27,3.3-4.34,6.42-13.57,6.27-20.61-.08-3.69-1.27-9-7.06-5.47-5.09,3.11-9,13-11.14,25.07C45.12,28.76,43.77,36.65,43.7,42c.21,19.17,4.43,26.22,13.05,24.69,6.65-1.18,11.56-7.23,16-13a57.5,57.5,0,0,0,2.5,9.73c2,4.21,5.14,3.78,6.58,3.13C88.31,63.62,93.64,45,97.4,43.72c8.87,25.67,11.93,26.58,13.84,24.5s16-24.07,20.57-24.25c.85,0-1.94,19.21.43,20.89a4.17,4.17,0,0,0,1.52.57c3.76.71,8.65-6.19,12.65-10.68a44.23,44.23,0,0,1,9.77-8.39c-1.86,1.64-5.12,7.22-5,12.93a7.26,7.26,0,0,0,2,5.22c2.65,2.51,7.49.63,10.69-1.52a42.18,42.18,0,0,0,4.87-4.18c3.1,5.07,11.27,3.49,12.8,3.41.56,0,5.19-.54,5.5-2.58.19-1.23-1.4-1.41-1.85-1.44l.19.84c.53,0,.72.17.54.66s-1.09,1.27-3.82,1.56c-9.18.15-11.53-4.76-11.58-4.86.5-1.14,1.91-5.2-.55-6.28-1.19-.52-1.76.72-2.07,1.26a6.27,6.27,0,0,0-.62,2.66,10.17,10.17,0,0,0,.52,2.59,13.12,13.12,0,0,1-9.14,5.26c-2.73.32-6.2-1.81-4.23-8.77,1.06-3.27,3.46-6.28,5.18-7.09,2.19-1,5.22.79,6.23,1.32.5.27,2.16,1.4,2.74.33a2.3,2.3,0,0,0-.76-3.12c-7.87-4.74-17,4.06-22.69,9-3.94,3.42-6.08,7.6-9.47,7.77-.93-.23-1-17.51-1.43-18.27s-1.53-.9-3.13-.7C125.72,43,115.75,53,108.91,64.1c-7.22-13.34-7.38-22.21-10-23.36S95.83,42,93.22,46.29c-3.09,5.12-8,14.63-12.76,15.68-2.25.49-5.34-4.37-5.91-11.21a33.73,33.73,0,0,0,2.85-8.64c.06-1.54-.14-3.13-.82-3.58-1.75-1.13-4,1-4.51,3.3a34.82,34.82,0,0,0,0,8.91C67.93,56.67,60.42,63.59,56.9,63.18c-3-.34-9.92-2.06-10.49-21.75A101,101,0,0,1,49.08,18.47Z"></path><path class="cls-1" d="M76.8,24.6c-1.2.38-5,1-4.8,4.68a4.12,4.12,0,0,0,4.09,3.85,4.48,4.48,0,0,0,4.24-4.51c-.62-2.47-2.44,1.89-4.37,2a2,2,0,0,1-1.89-1.8c-.06-1.58,3.07-.92,3.75-1.11s1-1.79.78-2.34A1.38,1.38,0,0,0,76.8,24.6Z"></path><path class="cls-1" d="M132,29.69c-.64.39-2.59,2.09-1.52,4.36a3.39,3.39,0,0,0,3.46,1.63,4,4,0,0,0,2.84-2.47C138.23,28.82,132.93,29.1,132,29.69Zm2.48,4.17a1.85,1.85,0,0,1-1.74-.21,1.26,1.26,0,0,1-.68-1.44,1,1,0,0,1,.77-1,4.06,4.06,0,0,1,2.81.2C136.5,32,135.08,33.61,134.45,33.86Z"></path><path class="cls-1" d="M38.3,29.29c-1.29.56-2.94.72-2.91.17,0-2.22-.84-4.41-3.89-2.89s-.14,6.12,2.54,5a31.2,31.2,0,0,1,.49,16.54c-2.13,8.16-7.47,16.18-19.19,16.64C7.74,65,3.83,60,3.25,50,2.54,37.84,8.09,26.37,12.7,21.49c10.13-10.72,17.73,0,18.62,1.35s5.5,2.46,2.41-3.32C30.22,13,22.05,10.65,12,20,6.64,25-.33,38.61,0,50,.42,63.6,5.14,68.87,15.35,68.59,31,68.17,35.68,53.66,36.53,47.46a43.47,43.47,0,0,0-.87-16.15,5.1,5.1,0,0,0,2.49-.94C38.55,30,38.3,29.29,38.3,29.29Z"></path></g></g></svg> 