<?xml version="1.0" encoding="UTF-8"?> <!-- Generator: Adobe Illustrator 21.1.0, SVG Export Plug-In . SVG Version: 6.00 Build 0) --> <svg xmlns="http://www.w3.org/2000/svg" xmlns:xlink="http://www.w3.org/1999/xlink" version="1.1" id="Layer_1" x="0px" y="0px" viewBox="0 0 274.1 274.1" style="enable-background:new 0 0 274.1 274.1;" xml:space="preserve"> <style type="text/css"> .st0{fill:#A39992;} .st1{fill:#5F504B;} </style> <g> <g> <path class="st0" d="M137.1,271.2c-74,0-134.2-60.2-134.2-134.2c0-74,60.2-134.2,134.2-134.2c74,0,134.2,60.2,134.2,134.2 C271.2,211.1,211.1,271.2,137.1,271.2z M137.1,4.2C63.8,4.2,4.2,63.8,4.2,137.1s59.6,132.9,132.9,132.9s132.9-59.6,132.9-132.9 S210.3,4.2,137.1,4.2z"></path> </g> <g> <g> <path class="st0" d="M26.6,145.2c-0.8,0-1.5-0.2-2.1-0.8c-0.6-0.5-0.9-1.2-1-2c0-0.8,0.2-1.5,0.8-2.1c0.5-0.6,1.2-0.9,2-0.9 c0.8,0,1.5,0.2,2.1,0.8c0.6,0.5,0.9,1.2,0.9,2c0,0.8-0.2,1.5-0.8,2.1C28.1,144.8,27.4,145.1,26.6,145.2z"></path> <path class="st0" d="M35.7,179.7c-0.9,0.3-1.8,0.4-2.7,0.4c-0.9-0.1-1.8-0.3-2.6-0.8c-0.8-0.5-1.4-1-1.9-1.8 c-0.5-0.7-0.9-1.6-1.3-2.7l-0.9-2.6l12.1-4.4l0.9,2.5c0.4,1.1,0.6,2.1,0.8,2.9c0.1,0.9,0,1.8-0.3,2.6c-0.3,0.9-0.8,1.6-1.5,2.3 C37.3,178.9,36.5,179.4,35.7,179.7z M34.8,177.5c0.7-0.2,1.2-0.6,1.7-1.1c0.5-0.5,0.8-1,0.9-1.6c0.2-0.6,0.2-1.2,0.1-1.7 c-0.1-0.6-0.3-1.2-0.6-2l-0.1-0.2l-7.7,2.8l0.1,0.3c0.1,0.3,0.1,0.5,0.2,0.8c0.2,0.5,0.4,1,0.7,1.4c0.3,0.4,0.7,0.7,1.2,1.1 c0.5,0.3,1,0.5,1.7,0.6C33.7,177.8,34.3,177.7,34.8,177.5z"></path> <path class="st0" d="M34.5,191.9l-3.1-6.2l11.5-5.7l3.1,6.2l-2.1,1l-2-4l-2.7,1.3l1.9,3.9l-2.1,1l-1.9-3.9l-2.6,1.3l2,4 L34.5,191.9z"></path> <path class="st0" d="M48.5,206.2c-1,0.7-2,1-2.9,0.7c-0.9-0.3-1.6-0.6-2-1.1c-0.4-0.4-0.9-0.9-1.3-1.5l-1.9-2.6l10.4-7.5l1.4,2 c0.5,0.7,0.9,1.3,1.1,1.6c0.2,0.4,0.4,0.8,0.5,1.4c0.1,0.6,0,1.1-0.2,1.7c-0.2,0.6-0.6,1-1.1,1.4c-0.4,0.3-0.9,0.5-1.4,0.6 c-0.5,0.1-1,0-1.4-0.3c0.2,0.7,0.2,1.4,0,2C49.5,205.3,49.1,205.8,48.5,206.2z M47.2,204.2c0.3-0.2,0.4-0.4,0.5-0.6 c0.1-0.2,0.1-0.5,0.1-0.8c0-0.3-0.1-0.6-0.3-0.9c-0.2-0.3-0.3-0.5-0.3-0.5l-0.1-0.2l-0.6-0.8l-2.7,1.9l0.6,0.8 c0.2,0.3,0.5,0.6,0.7,0.8c0.2,0.2,0.5,0.4,0.9,0.5C46.3,204.6,46.7,204.6,47.2,204.2z M51,200.5c0.2-0.1,0.3-0.3,0.4-0.6 c0.1-0.2,0.1-0.4,0.1-0.6c0-0.2-0.1-0.3-0.2-0.5c-0.1-0.2-0.2-0.3-0.2-0.4c-0.1-0.1-0.1-0.2-0.2-0.3c-0.1-0.1-0.1-0.2-0.2-0.3 l-0.3-0.4l-2.1,1.5l0.3,0.4l0.1,0.2c0.3,0.4,0.5,0.7,0.6,0.8c0.1,0.1,0.2,0.2,0.4,0.3c0.2,0.1,0.4,0.2,0.7,0.1 C50.6,200.8,50.8,200.7,51,200.5z"></path> <path class="st0" d="M52.5,216.8l-4.6-5.2l9.6-8.5l4.6,5.2l-1.7,1.5l-3-3.4l-2.2,2l2.9,3.2l-1.7,1.5l-2.9-3.2l-2.2,2l3,3.4 L52.5,216.8z"></path> <path class="st0" d="M63.5,222.2c-0.8,0.8-1.7,1.3-2.9,1.3c-1.1,0-2.1-0.4-2.9-1.1c-0.8-0.8-1.3-1.7-1.4-2.8 c-0.1-1.1,0.2-2.1,1-2.9l1.8,1.7c-0.3,0.4-0.5,0.8-0.4,1.2s0.3,0.8,0.6,1.2c0.3,0.3,0.7,0.5,1.2,0.5c0.4,0,0.8-0.2,1.1-0.5 c0.4-0.5,0.6-0.9,0.5-1.4c-0.1-0.5-0.3-1-0.6-1.6c-0.3-0.6-0.6-1-0.7-1.4s-0.2-0.7-0.2-1.1c0-0.4,0.1-0.9,0.2-1.3 c0.2-0.5,0.4-0.8,0.7-1.2c0.7-0.8,1.6-1.1,2.6-1.1c1,0,1.9,0.3,2.7,1.1c0.7,0.7,1.1,1.5,1.2,2.6c0.1,1-0.2,1.9-0.9,2.6l-1.8-1.7 c0.3-0.3,0.4-0.6,0.3-1c0-0.4-0.2-0.7-0.5-1c-0.3-0.3-0.6-0.4-0.9-0.3c-0.3,0-0.6,0.2-0.9,0.5c-0.3,0.3-0.4,0.6-0.3,1 c0.1,0.4,0.2,0.9,0.6,1.4c0.3,0.6,0.5,1,0.7,1.3s0.2,0.8,0.4,1.6C64.7,220.5,64.3,221.3,63.5,222.2z"></path> <path class="st0" d="M75.2,222.8l-1.9-1.5l-6.5,8.3l-1.9-1.5l6.5-8.3l-1.9-1.4l1.4-1.8l5.6,4.4L75.2,222.8z"></path> <path class="st0" d="M77.2,236.7l-5.8-3.7l7-10.8l5.8,3.7l-1.2,1.9l-3.8-2.4l-1.6,2.5l3.6,2.3l-1.2,1.9l-3.6-2.3l-1.6,2.5 l3.8,2.4L77.2,236.7z"></path> <path class="st0" d="M95.6,241.7c-0.5,1-1.2,1.7-2.3,2.1c-1.1,0.4-2.1,0.4-3.2-0.1c-1-0.5-1.8-1.2-2.2-2.2c-0.5-1-0.5-2,0-3 l2.3,1c-0.2,0.5-0.2,0.9,0,1.3c0.2,0.4,0.5,0.7,1,0.9c0.4,0.2,0.8,0.2,1.3,0.1c0.4-0.1,0.7-0.4,0.9-0.9c0.3-0.6,0.3-1.1,0-1.5 c-0.2-0.4-0.6-0.9-1.1-1.3c-0.5-0.4-0.9-0.8-1.1-1.1c-0.2-0.3-0.4-0.6-0.6-1c-0.1-0.4-0.2-0.9-0.2-1.3s0.1-0.9,0.3-1.3 c0.4-0.9,1.1-1.6,2-1.9c1-0.3,1.9-0.3,2.9,0.1c0.9,0.4,1.6,1.1,2,2s0.4,1.9,0,2.8l-2.2-1c0.2-0.4,0.2-0.7,0-1.1 c-0.2-0.3-0.4-0.6-0.8-0.7c-0.3-0.2-0.7-0.2-1,0c-0.3,0.1-0.5,0.4-0.7,0.7c-0.2,0.4-0.2,0.7,0,1.1c0.2,0.3,0.5,0.7,1,1.2 c0.5,0.4,0.8,0.8,1,1c0.2,0.2,0.5,0.7,0.9,1.4C96.1,239.6,96.1,240.6,95.6,241.7z"></path> <path class="st0" d="M110.9,250.5l-2.3-0.7l2.7-9.2l-5.9,8.3l-1.9-0.6l-0.5-10.2l-2.7,9.2l-2.3-0.7l3.6-12.3l3.1,0.9l0.5,10.4 l6.1-8.4l3.1,0.9L110.9,250.5z"></path> <path class="st0" d="M127,253l-2.6-0.4l-0.9-3.5l-4.5-0.6l-1.9,3.1l-2.6-0.4l7.1-12l1.8,0.3L127,253z M122.9,246.7l-0.8-4.1 l-1.9,3.7L122.9,246.7z"></path> <path class="st0" d="M139.8,253.3l-2.9-0.1l-3.9-5.7l-0.1,5.6l-2.4,0l0.2-12.8l2.4,0l-0.1,5.5l4.1-5.5l2.9,0.1l-5,6.2 L139.8,253.3z"></path> <path class="st0" d="M150.2,252.6l-6.9,0.6l-1-12.8l6.9-0.6l0.2,2.3l-4.5,0.4l0.2,3l4.3-0.4l0.2,2.3l-4.3,0.4l0.2,2.9l4.5-0.4 L150.2,252.6z"></path> <path class="st0" d="M165,250l-2.6,0.5l-7.1-8.1l1.8,9.2l-2.3,0.5l-2.5-12.6l2.6-0.5l7.1,8.2l-1.8-9.2l2.3-0.5L165,250z"></path> <path class="st0" d="M176.2,246.6l-6.6,2.1l-3.9-12.2l6.6-2.1l0.7,2.2l-4.3,1.4l0.9,2.8l4.1-1.3l0.7,2.2l-4.1,1.3l0.9,2.8 l4.3-1.4L176.2,246.6z"></path> <path class="st0" d="M187.8,229.8l-3.7,1.9l1.3,2.6l3.5-1.8l1,2.1l-3.5,1.8l2.4,4.7l-2.1,1.1l-5.8-11.5l5.8-2.9L187.8,229.8z"></path> <path class="st0" d="M203.3,232.7l-2.5,1.6l-5.4-2.4l2.6,4.2l-2,1.3l-6.9-10.8l3.1-2c0.8-0.5,1.4-0.8,1.9-0.9 c0.5-0.1,1-0.1,1.5-0.1c0.5,0.1,1.1,0.3,1.6,0.6c0.5,0.3,0.9,0.7,1.3,1.3c0.3,0.4,0.4,0.9,0.6,1.4c0.1,0.5,0.1,1,0,1.5 c-0.1,0.5-0.2,0.9-0.4,1.2c-0.2,0.4-0.5,0.7-0.8,1.1L203.3,232.7z M196.5,226.7c-0.3-0.5-0.7-0.8-1.2-0.9s-0.8,0-1,0.1 c-0.3,0.1-0.6,0.3-0.9,0.5l-1.1,0.7l2,3.2l1.1-0.7c0.4-0.3,0.7-0.5,0.9-0.8c0.2-0.2,0.3-0.5,0.4-0.9 C196.9,227.6,196.8,227.2,196.5,226.7z"></path> <path class="st0" d="M215.6,222.9l-2,1.7l-3.2-1.7l-3.5,2.9l1,3.5l-2,1.7l-4-13.3l1.4-1.2L215.6,222.9z M208.2,221.7l-3.5-2.1 l1.4,3.9L208.2,221.7z"></path> <path class="st0" d="M224.6,213.5l-1.6,1.8l-9.6-8.5l1.6-1.8L224.6,213.5z"></path> <path class="st0" d="M222.8,199l-1.5,1.9l8.3,6.5l-1.5,1.9l-8.3-6.5l-1.4,1.9l-1.8-1.4l4.4-5.6L222.8,199z"></path> <path class="st0" d="M238.8,193.5l-1.4,2.2l-3.5-0.6l-2.4,3.9l2,3l-1.4,2.2l-8-11.4l1-1.6L238.8,193.5z M231.4,194.7l-4-0.9 l2.6,3.2L231.4,194.7z"></path> <path class="st0" d="M243.1,184.7l-2.8,5.7l-11.5-5.6l1-2.1l9.5,4.6l1.7-3.5L243.1,184.7z"></path> <path class="st0" d="M245.2,179.6l-0.9,2.2l-11.9-4.8l0.9-2.2L245.2,179.6z"></path> <path class="st0" d="M250.2,164.3l-0.7,2.5l-3.6,0.4l-1.3,4.4l2.8,2.3l-0.7,2.5l-10.8-8.8l0.5-1.8L250.2,164.3z M243.4,167.5 l-4.1,0.2l3.3,2.4L243.4,167.5z"></path> <path class="st0" d="M247.7,132.4c0.8,0,1.5,0.3,2.1,0.8c0.6,0.6,0.9,1.2,0.9,2.1c0,0.8-0.3,1.5-0.8,2.1 c-0.6,0.6-1.3,0.9-2.1,0.9c-0.8,0-1.5-0.3-2.1-0.8c-0.6-0.6-0.9-1.2-0.9-2.1c0-0.8,0.3-1.5,0.8-2.1 C246.2,132.7,246.9,132.4,247.7,132.4z"></path> </g> <g> <path class="st0" d="M33,102.2c1.8,0.5,3.1,1.5,4,3.1c0.9,1.6,1.1,3.3,0.7,5.1c-0.5,1.8-1.5,3.1-3.1,4.1s-3.3,1.1-5.1,0.7 c-1.8-0.5-3.2-1.5-4.1-3.1c-0.9-1.6-1.1-3.3-0.7-5.1c0.5-1.8,1.5-3.1,3.1-4.1C29.5,101.9,31.2,101.7,33,102.2z M32.4,104.5 c-1.2-0.3-2.3-0.2-3.3,0.4c-1,0.6-1.7,1.5-2,2.6c-0.3,1.2-0.2,2.3,0.4,3.3c0.6,1,1.5,1.7,2.7,2c1.1,0.3,2.3,0.2,3.3-0.4 c1.1-0.6,1.7-1.5,2-2.6c0.3-1.1,0.1-2.2-0.5-3.3C34.4,105.5,33.5,104.8,32.4,104.5z"></path> <path class="st0" d="M42.7,95.3l-2.3,5.8l-11.9-4.8l0.9-2.2l9.8,3.9l1.5-3.6L42.7,95.3z"></path> <path class="st0" d="M44.8,90.9l-1,2.1l-11.5-5.6l1-2.1L44.8,90.9z"></path> <path class="st0" d="M41,71.8l8.4,10.9l-1,1.7L34.8,82l1.3-2.1l10.1,2.1l-6.5-8L41,71.8z"></path> <path class="st0" d="M54.9,74.7l-1.4,1.9l-10.3-7.7l1.4-1.9L54.9,74.7z"></path> <path class="st0" d="M64.7,63.3L63,65.2L59.6,64l-3.1,3.4l1.5,3.3l-1.8,1.9l-5.9-12.6l1.2-1.4L64.7,63.3z M57.2,63.2l-3.8-1.6 l2,3.6L57.2,63.2z"></path> <path class="st0" d="M69.5,54.1c0.7,0.9,1.1,1.8,1,3c-0.1,1.1-0.6,2.1-1.4,2.8c-0.8,0.7-1.8,1.1-2.9,1.1c-1.1,0-2-0.4-2.8-1.3 l1.9-1.6c0.3,0.4,0.7,0.5,1.2,0.5c0.4,0,0.9-0.2,1.2-0.5c0.3-0.3,0.5-0.7,0.6-1.1c0-0.4-0.1-0.8-0.4-1.2 c-0.4-0.5-0.9-0.7-1.3-0.6c-0.5,0-1,0.2-1.7,0.5s-1.1,0.4-1.4,0.5c-0.3,0.1-0.7,0.1-1.1,0.1c-0.4,0-0.9-0.2-1.3-0.4 c-0.4-0.2-0.8-0.5-1.1-0.8c-0.7-0.8-1-1.7-0.9-2.7c0.1-1,0.5-1.9,1.3-2.6c0.8-0.7,1.6-1,2.7-0.9c1,0,1.9,0.4,2.5,1.2l-1.8,1.6 c-0.3-0.3-0.6-0.4-1-0.4c-0.4,0-0.7,0.1-1,0.4c-0.3,0.3-0.4,0.5-0.4,0.9c0,0.3,0.1,0.7,0.4,1c0.3,0.3,0.6,0.5,1,0.4 c0.4,0,0.9-0.2,1.5-0.4c0.6-0.3,1.1-0.4,1.3-0.5c0.3-0.1,0.8-0.2,1.6-0.2C67.9,52.7,68.7,53.2,69.5,54.1z"></path> <path class="st0" d="M89.4,45.4l-2.2,1.3l-2.9-2.1l-3.9,2.4l0.5,3.6l-2.2,1.3l-2-13.8l1.6-1L89.4,45.4z M82.2,43.1L79,40.5 l0.8,4.1L82.2,43.1z"></path> <path class="st0" d="M103.7,39.2l-2.2,0.9l-3.7-8.9l0.6,10.2l-1.9,0.8l-6.8-7.6l3.7,8.9l-2.2,0.9l-4.9-11.9l3-1.2l6.9,7.7 l-0.5-10.4l3-1.2L103.7,39.2z"></path> <path class="st0" d="M114.2,32.4c0.3,1.2,0.2,2.2-0.4,2.9c-0.6,0.7-1.2,1.2-1.7,1.5c-0.6,0.3-1.2,0.5-1.9,0.7l-3.1,0.8l-3.3-12.4 l2.3-0.6c0.9-0.2,1.5-0.4,1.9-0.4c0.4-0.1,0.9,0,1.5,0.1c0.6,0.1,1.1,0.4,1.5,0.8c0.5,0.4,0.8,0.9,0.9,1.5c0.1,0.5,0.1,1,0,1.5 c-0.1,0.5-0.4,0.9-0.8,1.2c0.7,0,1.4,0.3,1.9,0.7C113.7,31.1,114,31.6,114.2,32.4z M109.8,28c-0.1-0.2-0.2-0.4-0.4-0.6 c-0.2-0.2-0.4-0.2-0.6-0.3c-0.2,0-0.4,0-0.5,0c-0.2,0-0.3,0.1-0.5,0.1c-0.1,0-0.2,0.1-0.3,0.1c-0.1,0-0.2,0.1-0.3,0.1l-0.4,0.1 l0.7,2.5l0.4-0.1l0.2,0c0.5-0.1,0.8-0.2,0.9-0.3c0.1,0,0.2-0.1,0.4-0.3c0.2-0.1,0.3-0.3,0.4-0.6C109.8,28.5,109.8,28.2,109.8,28z M111.9,32.9c-0.1-0.3-0.2-0.5-0.4-0.7c-0.2-0.2-0.4-0.3-0.7-0.3c-0.3-0.1-0.6-0.1-0.9,0c-0.3,0.1-0.5,0.1-0.6,0.1L109,32l-1,0.3 l0.8,3.2l1-0.3c0.4-0.1,0.7-0.2,1-0.4c0.3-0.1,0.6-0.4,0.8-0.7C111.9,33.8,112,33.4,111.9,32.9z"></path> <path class="st0" d="M120.5,35.2l-2.3,0.4L116,23l2.3-0.4L120.5,35.2z"></path> <path class="st0" d="M131.4,30.2c0.1,1.1-0.2,2.1-1,3c-0.7,0.9-1.7,1.3-2.8,1.4c-1.1,0.1-2.1-0.2-3-0.9c-0.9-0.7-1.4-1.6-1.5-2.7 l2.5-0.2c0,0.5,0.2,0.9,0.6,1.1c0.4,0.3,0.8,0.4,1.3,0.3c0.4,0,0.8-0.2,1.1-0.6s0.4-0.7,0.4-1.2c-0.1-0.6-0.3-1.1-0.7-1.3 c-0.4-0.3-0.9-0.5-1.6-0.6c-0.7-0.1-1.1-0.3-1.5-0.4c-0.3-0.1-0.6-0.3-1-0.6c-0.3-0.3-0.6-0.6-0.8-1.1c-0.2-0.4-0.4-0.9-0.4-1.3 c-0.1-1,0.2-1.9,0.9-2.7c0.7-0.8,1.5-1.2,2.6-1.3c1-0.1,1.9,0.2,2.7,0.8c0.8,0.6,1.3,1.5,1.3,2.5l-2.4,0.2c0-0.4-0.2-0.7-0.5-0.9 s-0.7-0.3-1-0.3c-0.4,0-0.7,0.2-0.9,0.5c-0.2,0.3-0.3,0.6-0.3,1c0,0.4,0.2,0.7,0.5,0.9c0.3,0.2,0.8,0.4,1.4,0.5 c0.6,0.2,1.1,0.3,1.4,0.4c0.3,0.1,0.8,0.4,1.4,0.8C130.9,28.2,131.3,29,131.4,30.2z"></path> <path class="st0" d="M140.8,30.2c0,0.6-0.1,1.1-0.1,1.5c-0.1,0.4-0.3,0.8-0.6,1.2c-0.3,0.4-0.7,0.8-1.2,1c-0.5,0.2-1,0.4-1.6,0.4 c-1,0-1.8-0.3-2.5-1c-0.7-0.6-1-1.4-1-2.4l2.4,0c0.1,0.6,0.5,0.9,1.1,0.9c0.5,0,0.8-0.1,0.9-0.4c0.2-0.3,0.3-0.7,0.3-1.1l0.1-9.2 l2.4,0L140.8,30.2z"></path> <path class="st0" d="M157.7,29.3c-0.2,1.8-1.1,3.3-2.6,4.4c-1.5,1.1-3.1,1.6-4.9,1.3c-1.8-0.2-3.3-1.1-4.4-2.5 c-1.1-1.4-1.6-3.1-1.3-4.9c0.2-1.9,1.1-3.3,2.5-4.5c1.5-1.1,3.1-1.6,4.9-1.3c1.8,0.2,3.3,1.1,4.4,2.5 C157.5,25.8,157.9,27.4,157.7,29.3z M155.4,28.9c0.2-1.2-0.1-2.3-0.9-3.2c-0.7-0.9-1.7-1.5-2.9-1.7c-1.2-0.2-2.3,0.1-3.2,0.9 c-0.9,0.7-1.5,1.7-1.6,2.9c-0.2,1.2,0.1,2.3,0.9,3.2c0.7,1,1.7,1.5,2.8,1.7c1.2,0.2,2.2-0.2,3.2-0.9 C154.7,31.1,155.2,30.1,155.4,28.9z"></path> <path class="st0" d="M169.8,39.1l-2.5-0.7l-2.7-10.5l-2.5,9l-2.3-0.6l3.4-12.4l2.6,0.7l2.6,10.5l2.5-9l2.3,0.6L169.8,39.1z"></path> <path class="st0" d="M185.3,45.8l-6.2-3l5.6-11.5l6.2,3l-1,2.1l-4.1-2l-1.3,2.7l3.9,1.9l-1,2.1l-3.9-1.9l-1.3,2.7l4.1,2 L185.3,45.8z"></path> <path class="st0" d="M195.7,52.1l-2.5-1.6l-0.2-5.9l-2.6,4.1l-2-1.3l6.8-10.9l3.1,2c0.8,0.5,1.4,0.9,1.7,1.3 c0.3,0.4,0.5,0.8,0.7,1.3c0.2,0.5,0.2,1.1,0.2,1.7c-0.1,0.6-0.3,1.2-0.6,1.7c-0.3,0.4-0.6,0.8-1,1.1c-0.4,0.3-0.9,0.6-1.3,0.7 c-0.4,0.1-0.9,0.2-1.3,0.1c-0.4,0-0.9-0.1-1.3-0.3L195.7,52.1z M198.1,43.4c0.3-0.5,0.4-1,0.3-1.4c-0.2-0.4-0.3-0.7-0.5-0.9 c-0.2-0.2-0.5-0.4-0.8-0.6l-1.1-0.7l-2,3.2l1.1,0.7c0.4,0.3,0.8,0.4,1.1,0.5s0.6,0.1,1,0C197.5,44.1,197.8,43.9,198.1,43.4z"></path> <path class="st0" d="M211.4,65.3l-1.9-1.8l1.2-3.4l-3.4-3.1l-3.3,1.5l-1.9-1.8l12.6-5.8l1.4,1.3L211.4,65.3z M211.5,57.8l1.6-3.8 l-3.6,2L211.5,57.8z M218,50.9c-0.3,0.3-0.6,0.4-0.9,0.5c-0.4,0-0.7-0.1-1-0.4c-0.3-0.3-0.4-0.6-0.5-1c0-0.4,0.1-0.7,0.3-1 c0.3-0.3,0.6-0.4,0.9-0.5c0.4,0,0.7,0.1,1,0.4c0.3,0.3,0.4,0.6,0.5,1C218.3,50.3,218.2,50.6,218,50.9z M217.3,50.3 c0.1-0.1,0.1-0.2,0.1-0.4c0-0.1-0.1-0.3-0.2-0.3c-0.1-0.1-0.3-0.2-0.4-0.1c-0.1,0-0.2,0.1-0.3,0.2c-0.1,0.1-0.1,0.2-0.1,0.3 c0,0.1,0.1,0.3,0.2,0.4c0.1,0.1,0.2,0.1,0.3,0.1C217.1,50.5,217.2,50.4,217.3,50.3z"></path> <path class="st0" d="M225.4,76.4c-1,0.8-2,1-2.9,0.7c-0.9-0.3-1.6-0.6-2-1c-0.5-0.4-0.9-0.9-1.3-1.5l-1.9-2.6l10.3-7.7l1.4,1.9 c0.5,0.7,0.9,1.2,1.1,1.6c0.2,0.4,0.4,0.8,0.5,1.4c0.1,0.6,0,1.1-0.2,1.7c-0.2,0.6-0.6,1.1-1,1.4c-0.4,0.3-0.9,0.5-1.4,0.6 c-0.5,0.1-1,0-1.4-0.2c0.2,0.7,0.3,1.4,0,2C226.4,75.4,226,75.9,225.4,76.4z M224,74.4c0.3-0.2,0.4-0.4,0.5-0.6 c0.1-0.2,0.1-0.5,0.1-0.8c0-0.3-0.2-0.6-0.3-0.9c-0.2-0.3-0.3-0.5-0.3-0.5l-0.1-0.2l-0.6-0.8l-2.6,2l0.6,0.8 c0.2,0.3,0.5,0.6,0.7,0.8c0.2,0.2,0.5,0.4,0.9,0.5C223.2,74.8,223.6,74.7,224,74.4z M227.8,70.6c0.2-0.2,0.3-0.3,0.4-0.6 c0.1-0.2,0.1-0.4,0-0.6c0-0.2-0.1-0.3-0.2-0.5c-0.1-0.2-0.2-0.3-0.3-0.4c-0.1-0.1-0.1-0.2-0.2-0.3c-0.1-0.1-0.1-0.2-0.2-0.3 l-0.3-0.3l-2.1,1.6l0.3,0.4l0.1,0.2c0.3,0.4,0.5,0.7,0.6,0.8c0.1,0.1,0.2,0.2,0.4,0.3c0.2,0.1,0.4,0.2,0.7,0.1 S227.6,70.8,227.8,70.6z"></path> <path class="st0" d="M239.5,82.3l-9.1,0.5l-4.1,2.4l-1.2-2l4.1-2.4l4.8-7.8l1.3,2.2l-3.6,5.4l6.5-0.6L239.5,82.3z"></path> <path class="st0" d="M243.4,101.3c-0.6,0.2-1.2,0.3-1.9,0.3c-0.6,0-1.2-0.2-1.7-0.5c-0.5-0.3-0.9-0.6-1.1-1 c-0.3-0.4-0.6-1.2-1.1-2.3l-0.2-0.4L233,99l-0.8-2.2l12-4.6l1.1,2.8c0.3,0.9,0.6,1.5,0.7,2c0.1,0.4,0.1,1-0.1,1.6 c-0.1,0.6-0.4,1.1-0.8,1.6C244.5,100.7,244,101.1,243.4,101.3z M242.5,99.1c0.4-0.1,0.6-0.4,0.8-0.7c0.2-0.3,0.2-0.6,0.2-0.9 c0-0.3-0.1-0.5-0.1-0.7c-0.1-0.2-0.2-0.5-0.3-0.7l-0.1-0.4l-0.2-0.4l-3.1,1.2l0.2,0.4l0.2,0.4c0.1,0.3,0.2,0.5,0.3,0.7 c0.1,0.2,0.2,0.4,0.4,0.6c0.2,0.2,0.4,0.4,0.8,0.5C241.8,99.2,242.2,99.2,242.5,99.1z"></path> <path class="st0" d="M238.5,117.1l-0.7-2.5l2.9-2.2l-1.1-4.4l-3.6-0.5l-0.7-2.5l13.8,1.9l0.5,1.8L238.5,117.1z M242.7,110.9 l3.4-2.3l-4.1-0.3L242.7,110.9z M251.8,108.6c-0.4,0.1-0.7,0.1-1-0.1c-0.3-0.2-0.5-0.5-0.6-0.8c-0.1-0.4-0.1-0.7,0.1-1.1 c0.2-0.3,0.4-0.6,0.8-0.6c0.4-0.1,0.7-0.1,1,0.1c0.3,0.2,0.5,0.5,0.6,0.8c0.1,0.4,0.1,0.7-0.1,1.1 C252.5,108.3,252.2,108.5,251.8,108.6z M251.6,107.7c0.1,0,0.2-0.1,0.3-0.2c0.1-0.1,0.1-0.3,0-0.4c0-0.2-0.1-0.3-0.3-0.3 c-0.1,0-0.2-0.1-0.4,0c-0.1,0-0.2,0.1-0.3,0.2c-0.1,0.1-0.1,0.3,0,0.4c0,0.1,0.1,0.2,0.2,0.3 C251.3,107.8,251.4,107.8,251.6,107.7z"></path> </g> </g> <g> <path class="st0" d="M110.2,131.4c-0.1,2.5,0.5,5.9,1,8.1c1.6,6.3,11.6,22.5,24.8,26.3c0,0,4.2,1.6,5.9,0.6 c1.6-0.9,2.1-4.2,2.1-4.2c0.2-1.3,0.4-3.1,0-5.7c-2.4-14.1-17.7-27.8-28.7-28.8c0,0,4.6,2.1,6.4,1.9c21.4,12.4,36,15.1,44.2,8.7 c0.6-0.5,1.1-1.2,1.1-1.7c0-0.5-0.5-1.2-1.1-1.9c-3.9-4.4-10.4-8.5-17.5-10.2c-10.3-2.5-19.6-1.5-29.1-0.8 c-6.6-3-13.4-9.3-6.8-12.9c5.5-3,7.5,4.1,5.4,5c0,0,1.4,3.9,3.2,1.7c3-3.8,1.5-6.3,0.8-7.3c-2.4-3.3-8.1-3-11-1.3 c-2.2,1.3-3.9,3.2-3.9,5.8c-0.1,3.2,2.5,6.8,5,8.6l2.1,1.2c-0.9,0.3-1.5,0.7-2,1.1c-0.8,0.8-1.4,2.3-1.7,3.7L110.2,131.4z M116,136.6c-0.5-1.9-1-6.1-0.7-9.1c6-0.2,22.1,12,25.3,28.5c0.3,1.8,0.5,5.5-0.6,5.2C126.9,158.2,118.3,144.1,116,136.6z M122.8,125.7c11.3-0.5,15.2-2.1,25.1,0.4c5.4,1.4,13.8,7.2,15,9.1C154.7,141,135.6,133.9,122.8,125.7z"></path> </g> </g> </svg> 