<?xml version="1.0" encoding="UTF-8"?> <svg xmlns="http://www.w3.org/2000/svg" viewBox="0 0 19 18.7"><defs><style>.cls-1{fill:#a1624c;}</style></defs><title>Asset 3</title><g id="Layer_2" data-name="Layer 2"><g id="Layer_1-2" data-name="Layer 1"><path class="cls-1" d="M1,7.6a10.8,10.8,0,0,0,.3,2.6c.5,2,3.7,7.1,7.8,8.3,0,0,1.3.5,1.9.2s.7-1.3.7-1.3a5.5,5.5,0,0,0,0-1.8C10.9,11,6.1,6.7,2.6,6.3a6.9,6.9,0,0,0,2,.6c6.8,3.9,11.4,4.8,14,2.7a.9.9,0,0,0,.4-.5,1.1,1.1,0,0,0-.3-.6,11.2,11.2,0,0,0-5.5-3.2c-3.2-.8-6.2-.5-9.2-.2S-.4,2.1,1.8,1,4.1,2.3,3.5,2.6s.5,1.2,1,.5A1.7,1.7,0,0,0,4.7.8C4-.2,2.1-.1,1.2.4A2.2,2.2,0,0,0,0,2.2,3.7,3.7,0,0,0,1.6,4.9l.7.4-.6.3a2.5,2.5,0,0,0-.5,1.2ZM2.8,9.2a9.2,9.2,0,0,1-.2-2.9c1.9-.1,7,3.8,8,9,.1.6.1,1.7-.2,1.6C6.3,16,3.6,11.6,2.8,9.2ZM5,5.8c3.6-.2,4.8-.7,7.9.1a12.4,12.4,0,0,1,4.8,2.9C15.1,10.6,9,8.4,5,5.8Z"></path></g></g></svg> 